<svg width="450" height="450" viewBox="0 0 450 450" fill="none" xmlns="http://www.w3.org/2000/svg">
<g clip-path="url(#clip0_119_298)">
<path d="M447.357 137.98C444.867 134.665 440.962 132.715 436.816 132.715H342.548C336.252 95.3517 303.676 66.7969 264.551 66.7969C225.425 66.7969 192.85 95.3517 186.554 132.715H104.609L87.3826 11.3317C86.4606 4.83135 80.8963 0 74.33 0H13.1836C5.90273 0 0 5.90273 0 13.1836C0 20.4645 5.90273 26.3672 13.1836 26.3672H62.8857L80.1114 147.748V147.749V147.751L100.012 287.936C102.172 303.05 109.522 316.92 120.753 327.209C111.96 334.469 106.348 345.449 106.348 357.715C106.348 375.928 118.727 391.297 135.511 395.872C133.713 400.387 132.715 405.302 132.715 410.449C132.715 432.258 150.457 450 172.266 450C194.074 450 211.816 432.258 211.816 410.449C211.816 405.828 211.012 401.392 209.549 397.266H319.553C318.089 401.392 317.285 405.828 317.285 410.449C317.285 432.258 335.028 450 356.836 450C378.644 450 396.387 432.258 396.387 410.449C396.387 388.641 378.644 370.898 356.836 370.898H145.898C138.629 370.898 132.715 364.984 132.715 357.715C132.715 350.445 138.629 344.531 145.898 344.531H343.426C372.701 344.531 398.764 324.872 406.793 296.772L449.479 149.571C450.633 145.588 449.847 141.295 447.357 137.98V137.98Z" fill="#125166"/>
<circle cx="273" cy="134" r="107" fill="white"/>
<path d="M353.443 103.872L339.153 79.1192C337.754 76.6922 335.557 74.8259 332.935 73.8387C330.314 72.8514 327.431 72.8046 324.779 73.706L310.041 78.6893C307.501 76.9793 304.846 75.4458 302.096 74.0996L299.051 58.8469C298.502 56.1006 297.018 53.6294 294.852 51.8541C292.686 50.0789 289.971 49.1092 287.171 49.1104H258.591C255.79 49.1092 253.076 50.0789 250.91 51.8541C248.744 53.6294 247.26 56.1006 246.711 58.8469L243.665 74.0996C240.884 75.431 238.199 76.9545 235.63 78.659L220.977 73.706C218.326 72.8077 215.446 72.8562 212.827 73.8433C210.208 74.8303 208.013 76.6949 206.614 79.1192L192.324 103.872C190.924 106.296 190.407 109.13 190.861 111.892C191.315 114.654 192.711 117.173 194.813 119.022L206.505 129.297C206.402 130.823 206.275 132.337 206.275 133.881C206.275 135.443 206.336 136.987 206.445 138.519L194.819 148.74C192.715 150.587 191.317 153.106 190.861 155.868C190.405 158.63 190.92 161.465 192.318 163.89L206.608 188.643C208.006 191.071 210.203 192.939 212.825 193.927C215.447 194.915 218.33 194.963 220.983 194.062L235.721 189.073C238.26 190.786 240.914 192.322 243.665 193.669L246.711 208.915C247.26 211.662 248.744 214.133 250.91 215.908C253.076 217.683 255.79 218.653 258.591 218.652H284.991V206.542H258.591L254.292 185.046C248.345 182.837 242.824 179.617 237.973 175.528L217.102 182.588L202.812 157.835L219.312 143.333C218.183 137.071 218.168 130.66 219.269 124.393L202.812 109.927L217.102 85.1743L237.852 92.1981C242.737 88.1033 248.301 84.8942 254.292 82.7159L258.591 61.2205H287.171L291.47 82.7159C297.417 84.9254 302.937 88.1456 307.788 92.2344L328.66 85.1743L342.95 109.927L326.008 124.774L333.988 133.881L350.943 119.022C353.046 117.175 354.445 114.656 354.901 111.894C355.357 109.132 354.842 106.297 353.443 103.872V103.872Z" fill="#125166"/>
<path d="M315.266 195.521L299.584 179.839L291.046 188.376L315.266 212.596L357.652 170.211L349.114 161.673L315.266 195.521Z" fill="#125166"/>
<path d="M272.881 170.211C265.695 170.211 258.671 168.081 252.697 164.089C246.722 160.097 242.066 154.423 239.316 147.784C236.566 141.146 235.847 133.841 237.249 126.793C238.65 119.746 242.111 113.273 247.191 108.192C252.272 103.111 258.746 99.6507 265.793 98.2489C272.841 96.8471 280.145 97.5665 286.784 100.316C293.422 103.066 299.096 107.723 303.088 113.697C307.08 119.672 309.211 126.696 309.211 133.881C309.263 138.666 308.359 143.414 306.551 147.845C304.744 152.276 302.07 156.302 298.686 159.686C295.302 163.07 291.276 165.744 286.845 167.552C282.414 169.359 277.666 170.263 272.881 170.211V170.211ZM272.881 109.661C269.68 109.588 266.498 110.165 263.527 111.356C260.555 112.548 257.856 114.329 255.592 116.593C253.329 118.856 251.547 121.555 250.356 124.527C249.165 127.498 248.588 130.681 248.661 133.881C248.588 137.082 249.165 140.264 250.356 143.235C251.547 146.207 253.329 148.906 255.592 151.17C257.856 153.433 260.555 155.215 263.527 156.406C266.498 157.597 269.68 158.174 272.881 158.101C276.081 158.174 279.264 157.597 282.235 156.406C285.206 155.215 287.906 153.433 290.169 151.17C292.433 148.906 294.214 146.207 295.406 143.235C296.597 140.264 297.174 137.082 297.101 133.881C297.174 130.681 296.597 127.498 295.406 124.527C294.214 121.555 292.433 118.856 290.169 116.593C287.906 114.329 285.206 112.548 282.235 111.356C279.264 110.165 276.081 109.588 272.881 109.661V109.661Z" fill="#125166"/>
</g>
<defs>
<clipPath id="clip0_119_298">
<rect width="450" height="450" fill="white"/>
</clipPath>
</defs>
</svg>
